<svg width="128" height="128" viewBox="0 0 128 128" fill="none" xmlns="http://www.w3.org/2000/svg">
<path d="M48 58.6667V32C48 23.1635 55.1632 16 64 16C72.8368 16 80 23.1635 80 32V58.4923M55.4667 112H72.5333C84.4811 112 90.4549 112 95.0187 109.675C99.0325 107.629 102.296 104.366 104.341 100.352C106.667 95.7883 106.667 89.8144 106.667 77.8667V65.0667C106.667 59.0928 106.667 56.1056 105.504 53.824C104.482 51.817 102.85 50.1852 100.843 49.1626C98.5611 48 95.5739 48 89.6 48H38.4C32.4261 48 29.4391 48 27.1574 49.1626C25.1503 50.1852 23.5186 51.817 22.4959 53.824C21.3333 56.1056 21.3333 59.0928 21.3333 65.0667V77.8667C21.3333 89.8144 21.3333 95.7883 23.6585 100.352C25.7038 104.366 28.9674 107.629 32.9815 109.675C37.545 112 43.5189 112 55.4667 112Z" stroke="black" stroke-width="5" stroke-linecap="round" stroke-linejoin="round"/>
</svg>
