<svg width="128" height="128" viewBox="0 0 128 128" fill="none" xmlns="http://www.w3.org/2000/svg">
<path d="M40.0334 81.4117C40.6217 83.5408 42.8248 84.7904 44.9541 84.2021C47.0835 83.6139 48.3328 81.4107 47.7445 79.2811L40.0334 81.4117ZM17.0694 25.1977C14.9407 24.6071 12.7362 25.854 12.1456 27.9827C11.555 30.1114 12.8019 32.3159 14.9306 32.9065L17.0694 25.1977ZM107.673 83.8688C109.811 83.3136 111.094 81.1296 110.538 78.9915C109.982 76.8533 107.799 75.5707 105.661 76.1264L107.673 83.8688ZM54.3883 93.6469C56.0395 99.624 52.4148 105.93 45.9941 107.598L48.0063 115.341C58.5504 112.601 64.9936 101.994 62.0992 91.5168L54.3883 93.6469ZM45.9941 107.598C39.5315 109.278 33.0465 105.527 31.3814 99.4997L23.6702 101.63C26.5509 112.057 37.5038 118.071 48.0063 115.341L45.9941 107.598ZM31.3814 99.4997C29.7302 93.5227 33.3547 87.2171 39.7755 85.5483L37.7632 77.8053C27.219 80.5456 20.7757 91.1525 23.6702 101.63L31.3814 99.4997ZM39.7755 85.5483C46.238 83.8688 52.723 87.6197 54.3883 93.6469L62.0992 91.5168C59.2187 81.0896 48.2657 75.0763 37.7632 77.8053L39.7755 85.5483ZM47.7445 79.2811L36.2658 37.7317L28.5547 39.8621L40.0334 81.4117L47.7445 79.2811ZM26.1558 27.7187L17.0694 25.1977L14.9306 32.9065L24.017 35.4275L26.1558 27.7187ZM36.2658 37.7317C34.9158 32.8452 31.0459 29.0754 26.1558 27.7187L24.017 35.4275C26.2868 36.0572 27.9772 37.7719 28.5547 39.8621L36.2658 37.7317ZM59.2496 96.4533L107.673 83.8688L105.661 76.1264L57.2373 88.7104L59.2496 96.4533Z" fill="#1C274C"/>
<path d="M51.0155 46.5626C48.4288 37.1996 47.1355 32.5181 49.3309 28.83C51.5263 25.1418 56.3531 23.8874 66.0069 21.3786L76.2464 18.7176C85.8997 16.2088 90.7269 14.9543 94.5291 17.0837C98.3317 19.213 99.6251 23.8946 102.212 33.2576L104.956 43.1886C107.542 52.5516 108.836 57.2331 106.64 60.9211C104.445 64.6096 99.6181 65.864 89.9643 68.3728L79.7248 71.0336C70.0715 73.5424 65.2443 74.7968 61.4416 72.6677C57.6389 70.5381 56.3456 65.8565 53.7589 56.4939L51.0155 46.5626Z" stroke="#1C274C" stroke-width="3.75"/>
</svg>
