<svg width="128" height="128" viewBox="0 0 128 128" fill="none" xmlns="http://www.w3.org/2000/svg">
<path fill-rule="evenodd" clip-rule="evenodd" d="M90.5707 47.9888C93.5461 41.2944 86.7056 34.4539 80.0112 37.4293L53.3429 49.2818C51.5333 50.0861 50.0861 51.5333 49.2818 53.3429L37.4292 80.0112C34.4539 86.7056 41.2943 93.5461 47.9888 90.5707L74.6571 78.7184C76.4667 77.9141 77.9141 76.4667 78.7184 74.6571L90.5707 47.9888ZM58.6123 58.6123L78.0075 49.9925L69.3877 69.3877L49.9925 78.0075L58.6123 58.6123Z" fill="#0F0F0F"/>
<path fill-rule="evenodd" clip-rule="evenodd" d="M64 122.667C96.4005 122.667 122.667 96.4005 122.667 64C122.667 31.5993 96.4005 5.33334 64 5.33334C31.5993 5.33334 5.33333 31.5993 5.33333 64C5.33333 96.4005 31.5993 122.667 64 122.667ZM64 111.93C37.5288 111.93 16.0696 90.4709 16.0696 64C16.0696 37.5288 37.5288 16.0697 64 16.0697C90.4709 16.0697 111.93 37.5288 111.93 64C111.93 90.4709 90.4709 111.93 64 111.93Z" fill="#0F0F0F"/>
</svg>
