<svg width="128" height="128" viewBox="0 0 128 128" fill="none" xmlns="http://www.w3.org/2000/svg">
<path fill-rule="evenodd" clip-rule="evenodd" d="M63.9627 27.1835C58.8731 22.7138 52.1775 20 44.8425 20C28.9132 20 16 32.7984 16 48.586C16 55.856 18.7007 62.5291 23.2106 67.5733L64 108L103.582 68.7701L104.752 67.5365C109.262 62.4917 112 55.856 112 48.586C112 32.7984 99.0869 20 83.1573 20C75.8224 20 69.1269 22.7138 64.0373 27.1836L64 27.1466L63.9627 27.1835ZM64 37.8634L64.2928 38.1203L68.8421 33.6111L69.3163 33.1946C72.9963 29.963 77.8304 28 83.1573 28C94.736 28 104 37.2839 104 48.586C104 53.7669 102.072 58.4928 98.8603 62.1232L97.8624 63.1749L64 96.7365L29.0279 62.0752C25.8876 58.4843 24 53.7648 24 48.586C24 37.2839 33.2639 28 44.8425 28C50.1693 28 55.0037 29.963 58.6837 33.1946L59.1579 33.6108L63.7077 38.1201L64 37.8634Z" fill="#080341"/>
</svg>
