<svg width="128" height="128" viewBox="0 0 128 128" fill="none" xmlns="http://www.w3.org/2000/svg">
<path d="M101.333 16H26.6667C19.1242 16 15.353 16 13.0098 18.1984C10.6667 20.3968 10.6667 23.935 10.6667 31.0115V34.6906C10.6667 40.2257 10.6667 42.9933 12.0512 45.2876C13.4357 47.5819 15.9652 49.0058 21.0241 51.8536L36.5602 60.5995C39.9544 62.5099 41.6516 63.4656 42.8667 64.5205C45.3973 66.7173 46.9551 69.2987 47.661 72.4651C48 73.9851 48 75.7643 48 79.3221V93.5595C48 98.4107 48 100.836 49.3436 102.727C50.6872 104.618 53.0735 105.55 57.8464 107.417C67.8656 111.333 72.8752 113.292 76.4379 111.063C80 108.835 80 103.743 80 93.5595V79.3221C80 75.7643 80 73.9851 80.3392 72.4651C81.0448 69.2987 82.6027 66.7173 85.1333 64.5205C86.3483 63.4656 88.0453 62.5099 91.44 60.5995L106.976 51.8536C112.035 49.0058 114.564 47.5819 115.949 45.2876C117.333 42.9933 117.333 40.2257 117.333 34.6906V31.0115C117.333 23.935 117.333 20.3968 114.99 18.1984C112.647 16 108.876 16 101.333 16Z" stroke="#065532" stroke-width="3.75"/>
</svg>
