<svg width="128" height="128" viewBox="0 0 128 128" fill="none" xmlns="http://www.w3.org/2000/svg">
<path opacity="0.5" d="M117.333 64C117.333 93.4549 93.4549 117.333 64 117.333C34.5448 117.333 10.6666 93.4549 10.6666 64C10.6666 34.5448 34.5448 10.6667 64 10.6667C93.4549 10.6667 117.333 34.5448 117.333 64Z" fill="#8BC43F"/>
<path d="M89.6373 101.393C82.3455 106.402 73.5151 109.333 63.9999 109.333C54.4847 109.333 45.6545 106.402 38.3626 101.393C35.1421 99.1803 33.7658 94.9664 35.6383 91.5371C39.52 84.4277 47.5185 80 63.9999 80C80.4815 80 88.4799 84.4283 92.3615 91.5371C94.2341 94.9664 92.8575 99.1808 89.6373 101.393Z" fill="#8BC43F"/>
<path d="M64 64C72.8368 64 80 56.8368 80 48C80 39.1635 72.8368 32 64 32C55.1638 32 48.0002 39.1635 48.0002 48C48.0002 56.8368 55.1638 64 64 64Z" fill="#8BC43F"/>
</svg>
