<svg width="128" height="128" viewBox="0 0 128 128" fill="none" xmlns="http://www.w3.org/2000/svg">
<path opacity="0.4" d="M64.6437 68.16C64.2704 68.1067 63.7904 68.1067 63.3637 68.16C53.9771 67.84 46.5104 60.16 46.5104 50.7199C46.5104 41.0666 54.2971 33.2266 64.0037 33.2266C73.6571 33.2266 81.4971 41.0666 81.4971 50.7199C81.4437 60.16 74.0304 67.84 64.6437 68.16Z" stroke="#292D32" stroke-width="3.75" stroke-linecap="round" stroke-linejoin="round"/>
<path opacity="0.34" d="M99.9456 103.361C90.4523 112.054 77.8656 117.334 63.9989 117.334C50.1321 117.334 37.5454 112.054 28.0521 103.361C28.5854 98.3472 31.7854 93.4405 37.4921 89.6005C52.1054 79.8939 75.9989 79.8939 90.5056 89.6005C96.2123 93.4405 99.4123 98.3472 99.9456 103.361Z" stroke="#292D32" stroke-width="3.75" stroke-linecap="round" stroke-linejoin="round"/>
<path d="M64 117.333C93.4549 117.333 117.333 93.4549 117.333 64C117.333 34.5448 93.4549 10.6667 64 10.6667C34.5448 10.6667 10.6667 34.5448 10.6667 64C10.6667 93.4549 34.5448 117.333 64 117.333Z" stroke="#292D32" stroke-width="3.75" stroke-linecap="round" stroke-linejoin="round"/>
</svg>
