<svg width="132" height="132" viewBox="0 0 132 132" fill="none" xmlns="http://www.w3.org/2000/svg">
<path d="M27.853 38.941C12.1111 42.5028 4.24014 44.2837 2.3675 50.3055C0.494862 56.3271 5.86081 62.6023 16.5926 75.1515L19.3691 78.3982C22.4187 81.9643 23.9435 83.7473 24.6295 85.9534C25.3155 88.1595 25.085 90.5384 24.6239 95.2968L24.2041 99.6283C22.5816 116.372 21.7704 124.744 26.6729 128.465C31.5755 132.187 38.9451 128.794 53.6844 122.008L57.4975 120.252C61.6857 118.323 63.7798 117.359 65.9999 117.359C68.2201 117.359 70.3142 118.323 74.5023 120.252L78.3154 122.008C93.0546 128.794 100.424 132.187 105.327 128.465C110.23 124.744 109.418 116.372 107.796 99.6283M115.407 75.1515C126.139 62.6023 131.505 56.3271 129.632 50.3055C127.76 44.2837 119.889 42.5028 104.147 38.941L100.074 38.0196C95.6005 37.0074 93.3644 36.5014 91.5685 35.138C89.7721 33.7747 88.6207 31.7084 86.3167 27.5759L84.2194 23.8136C76.1132 9.27118 72.0601 2 65.9999 2C59.9398 2 55.8867 9.27124 47.7802 23.8137" stroke="#1C753D" stroke-width="3.75" stroke-linecap="round"/>
</svg>
