<svg width="128" height="128" viewBox="0 0 128 128" fill="none" xmlns="http://www.w3.org/2000/svg">
<rect width="128" height="128" rx="20" fill="#065532"/>
<g filter="url(#filter0_d_21_2)">
<path d="M60.1019 23.5262C61.3365 20.7561 61.9541 19.3711 62.8139 18.9446C63.5605 18.574 64.4373 18.574 65.184 18.9446C66.0437 19.3711 66.6613 20.7561 67.896 23.5262L77.7307 45.5898C78.096 46.4087 78.2784 46.8181 78.5611 47.1317C78.8107 47.4091 79.1163 47.631 79.4571 47.7829C79.8427 47.9546 80.2885 48.0017 81.1803 48.0958L105.203 50.6313C108.219 50.9496 109.727 51.1087 110.398 51.7945C110.981 52.3902 111.252 53.2243 111.131 54.0491C110.991 54.9984 109.865 56.0134 107.612 58.0438L89.6667 74.2155C89.0011 74.8155 88.6677 75.1158 88.4571 75.4811C88.2704 75.8048 88.1536 76.1638 88.1147 76.535C88.0704 76.9547 88.1632 77.3931 88.3493 78.2704L93.3616 101.901C93.9909 104.868 94.3056 106.351 93.8608 107.201C93.4741 107.94 92.7648 108.455 91.9429 108.595C90.9968 108.755 89.6832 107.997 87.056 106.482L66.1307 94.4128C65.3541 93.9648 64.9659 93.7414 64.5531 93.6534C64.1877 93.576 63.8101 93.576 63.4448 93.6534C63.032 93.7414 62.6437 93.9648 61.8672 94.4128L40.942 106.482C38.3149 107.997 37.0013 108.755 36.0551 108.595C35.2332 108.455 34.5237 107.94 34.1373 107.201C33.6926 106.351 34.0072 104.868 34.6365 101.901L39.6485 78.2704C39.8346 77.3931 39.9276 76.9547 39.8834 76.535C39.8443 76.1638 39.7277 75.8048 39.541 75.4811C39.3301 75.1158 38.9971 74.8155 38.3311 74.2155L20.3865 58.0438C18.1336 56.0134 17.0071 54.9984 16.8671 54.0491C16.7455 53.2243 17.0165 52.3902 17.5996 51.7945C18.271 51.1087 19.779 50.9496 22.795 50.6313L46.8179 48.0958C47.7095 48.0017 48.1553 47.9546 48.5407 47.7829C48.8818 47.631 49.1872 47.4091 49.4371 47.1317C49.7195 46.8181 49.902 46.4087 50.2671 45.5898L60.1019 23.5262Z" fill="white"/>
<path d="M60.1019 23.5262C61.3365 20.7561 61.9541 19.3711 62.8139 18.9446C63.5605 18.574 64.4373 18.574 65.184 18.9446C66.0437 19.3711 66.6613 20.7561 67.896 23.5262L77.7307 45.5898C78.096 46.4087 78.2784 46.8181 78.5611 47.1317C78.8107 47.4091 79.1163 47.631 79.4571 47.7829C79.8427 47.9546 80.2885 48.0017 81.1803 48.0958L105.203 50.6313C108.219 50.9496 109.727 51.1087 110.398 51.7945C110.981 52.3902 111.252 53.2243 111.131 54.0491C110.991 54.9984 109.865 56.0134 107.612 58.0438L89.6667 74.2155C89.0011 74.8155 88.6677 75.1158 88.4571 75.4811C88.2704 75.8048 88.1536 76.1638 88.1147 76.535C88.0704 76.9547 88.1632 77.3931 88.3493 78.2704L93.3616 101.901C93.9909 104.868 94.3056 106.351 93.8608 107.201C93.4741 107.94 92.7648 108.455 91.9429 108.595C90.9968 108.755 89.6832 107.997 87.056 106.482L66.1307 94.4128C65.3541 93.9648 64.9659 93.7414 64.5531 93.6534C64.1877 93.576 63.8101 93.576 63.4448 93.6534C63.032 93.7414 62.6437 93.9648 61.8672 94.4128L40.942 106.482C38.3149 107.997 37.0013 108.755 36.0551 108.595C35.2332 108.455 34.5237 107.94 34.1373 107.201C33.6926 106.351 34.0072 104.868 34.6365 101.901L39.6485 78.2704C39.8346 77.3931 39.9276 76.9547 39.8834 76.535C39.8443 76.1638 39.7277 75.8048 39.541 75.4811C39.3301 75.1158 38.9971 74.8155 38.3311 74.2155L20.3865 58.0438C18.1336 56.0134 17.0071 54.9984 16.8671 54.0491C16.7455 53.2243 17.0165 52.3902 17.5996 51.7945C18.271 51.1087 19.779 50.9496 22.795 50.6313L46.8179 48.0958C47.7095 48.0017 48.1553 47.9546 48.5407 47.7829C48.8818 47.631 49.1872 47.4091 49.4371 47.1317C49.7195 46.8181 49.902 46.4087 50.2671 45.5898L60.1019 23.5262Z" stroke="white" stroke-width="5" stroke-linecap="round" stroke-linejoin="round"/>
</g>
<defs>
<filter id="filter0_d_21_2" x="10.3385" y="16.1667" width="107.321" height="102.949" filterUnits="userSpaceOnUse" color-interpolation-filters="sRGB">
<feFlood flood-opacity="0" result="BackgroundImageFix"/>
<feColorMatrix in="SourceAlpha" type="matrix" values="0 0 0 0 0 0 0 0 0 0 0 0 0 0 0 0 0 0 127 0" result="hardAlpha"/>
<feOffset dy="4"/>
<feGaussianBlur stdDeviation="2"/>
<feComposite in2="hardAlpha" operator="out"/>
<feColorMatrix type="matrix" values="0 0 0 0 0 0 0 0 0 0 0 0 0 0 0 0 0 0 0.25 0"/>
<feBlend mode="normal" in2="BackgroundImageFix" result="effect1_dropShadow_21_2"/>
<feBlend mode="normal" in="SourceGraphic" in2="effect1_dropShadow_21_2" result="shape"/>
</filter>
</defs>
</svg>
