<svg width="128" height="128" viewBox="0 0 128 128" fill="none" xmlns="http://www.w3.org/2000/svg">
<path fill-rule="evenodd" clip-rule="evenodd" d="M26.6667 42.6667C26.6667 44.0812 26.1048 45.4377 25.1046 46.4379C24.1044 47.4381 22.7478 48 21.3334 48C19.9189 48 18.5623 47.4381 17.5621 46.4379C16.5619 45.4377 16 44.0812 16 42.6667V31.5893C16 27.536 16.4374 25.2693 17.7014 22.912C18.8907 20.6773 20.6774 18.8907 22.912 17.7013C25.2694 16.4373 27.5307 16 31.5894 16H42.6667C44.0812 16 45.4377 16.5619 46.4379 17.5621C47.4381 18.5623 48 19.9188 48 21.3333C48 22.7478 47.4381 24.1044 46.4379 25.1046C45.4377 26.1048 44.0812 26.6667 42.6667 26.6667H31.5894C29.1414 26.6667 28.5494 26.784 27.9414 27.104C27.5818 27.2891 27.2891 27.5818 27.104 27.9413C26.784 28.544 26.6667 29.1413 26.6667 31.5893V42.6667ZM42.6667 101.333C44.0812 101.333 45.4377 101.895 46.4379 102.895C47.4381 103.896 48 105.252 48 106.667C48 108.081 47.4381 109.438 46.4379 110.438C45.4377 111.438 44.0812 112 42.6667 112H31.5894C27.536 112 25.2694 111.563 22.912 110.299C20.6948 109.12 18.8803 107.305 17.7014 105.088C16.4374 102.731 16 100.469 16 96.4107V85.3333C16 83.9188 16.5619 82.5623 17.5621 81.5621C18.5623 80.5619 19.9189 80 21.3334 80C22.7478 80 24.1044 80.5619 25.1046 81.5621C26.1048 82.5623 26.6667 83.9188 26.6667 85.3333V96.4107C26.6667 98.8587 26.784 99.4507 27.104 100.059C27.3067 100.432 27.568 100.699 27.9414 100.896C28.544 101.216 29.1414 101.333 31.5894 101.333H42.6667ZM80 21.3333C80 22.7478 80.5619 24.1044 81.5621 25.1046C82.5623 26.1048 83.9189 26.6667 85.3333 26.6667H96.4107C98.8587 26.6667 99.4507 26.784 100.059 27.104C100.432 27.3067 100.699 27.568 100.896 27.9413C101.216 28.544 101.333 29.1413 101.333 31.5893V42.6667C101.333 44.0812 101.895 45.4377 102.895 46.4379C103.896 47.4381 105.252 48 106.667 48C108.081 48 109.438 47.4381 110.438 46.4379C111.438 45.4377 112 44.0812 112 42.6667V31.5893C112 27.536 111.563 25.2693 110.299 22.912C109.12 20.6948 107.305 18.8803 105.088 17.7013C102.731 16.4373 100.469 16 96.4107 16H85.3333C83.9189 16 82.5623 16.5619 81.5621 17.5621C80.5619 18.5623 80 19.9188 80 21.3333ZM101.333 85.3333C101.333 83.9188 101.895 82.5623 102.895 81.5621C103.896 80.5619 105.252 80 106.667 80C108.081 80 109.438 80.5619 110.438 81.5621C111.438 82.5623 112 83.9188 112 85.3333V96.4107C112 100.464 111.563 102.731 110.299 105.088C109.119 107.305 107.305 109.119 105.088 110.299C102.731 111.563 100.469 112 96.4107 112H85.3333C83.9189 112 82.5623 111.438 81.5621 110.438C80.5619 109.438 80 108.081 80 106.667C80 105.252 80.5619 103.896 81.5621 102.895C82.5623 101.895 83.9189 101.333 85.3333 101.333H96.4107C98.8587 101.333 99.4507 101.216 100.059 100.896C100.418 100.711 100.711 100.418 100.896 100.059C101.216 99.456 101.333 98.8587 101.333 96.4107V85.3333ZM16 58.6667C14.5855 58.6667 13.229 59.2286 12.2288 60.2288C11.2286 61.229 10.6667 62.5855 10.6667 64C10.6667 65.4145 11.2286 66.771 12.2288 67.7712C13.229 68.7714 14.5855 69.3333 16 69.3333H112C113.415 69.3333 114.771 68.7714 115.771 67.7712C116.771 66.771 117.333 65.4145 117.333 64C117.333 62.5855 116.771 61.229 115.771 60.2288C114.771 59.2286 113.415 58.6667 112 58.6667H16Z" fill="black"/>
</svg>
