<svg width="129" height="129" viewBox="0 0 129 129" fill="none" xmlns="http://www.w3.org/2000/svg">
<g clip-path="url(#clip0_21_4)">
<path d="M64.3142 123.983L61.1142 121.316C46.7142 110.649 0.314209 72.2493 0.314209 39.1826C0.314209 20.5159 15.7809 5.58259 34.9809 5.58259C46.7142 5.58259 57.9142 11.4493 64.3142 21.0493C70.7142 11.4493 81.9142 5.58259 93.6475 5.58259C112.848 5.58259 128.314 20.5159 128.314 39.1826C128.314 72.7826 81.9142 110.649 67.5142 121.849L64.3142 123.983ZM34.9809 15.7159C21.6475 15.7159 10.9809 25.8493 10.9809 38.6493C10.9809 60.5159 38.1809 89.3159 64.3142 110.116C90.4475 89.3159 117.648 60.5159 117.648 38.6493C117.648 25.8493 106.981 15.7159 93.6475 15.7159C85.1142 15.7159 77.6475 19.9826 73.3809 26.3826L64.3142 40.7826L55.2475 26.9159C50.9809 19.9826 43.5142 15.7159 34.9809 15.7159Z" fill="white"/>
</g>
<defs>
<clipPath id="clip0_21_4">
<rect width="128" height="128" fill="white" transform="translate(0.314209 0.249252)"/>
</clipPath>
</defs>
</svg>
