<svg width="128" height="128" viewBox="0 0 128 128" fill="none" xmlns="http://www.w3.org/2000/svg">
<path fill-rule="evenodd" clip-rule="evenodd" d="M33.6702 66.4693C33.067 49.558 45.9187 35.3344 62.4053 34.6667C78.8923 35.3344 91.744 49.558 91.1408 66.4693C91.1408 73.4933 98.5819 80.336 98.8 87.376C98.8 87.4757 98.8 87.5749 98.8 87.6747C98.9611 92.1851 95.5328 95.9781 91.1355 96.1547H74.5371C74.5525 99.6107 73.2821 102.943 70.9856 105.472C68.7771 107.932 65.6656 109.331 62.4053 109.331C59.1451 109.331 56.0341 107.932 53.8256 105.472C51.5286 102.943 50.2585 99.6107 50.2739 96.1547H33.6702C29.273 95.9781 25.8444 92.1851 26.0054 87.6747C26.0054 87.5749 26.0054 87.4757 26.0054 87.376C26.2291 80.3573 33.6702 73.4987 33.6702 66.4693Z" stroke="#0D0D0D" stroke-opacity="0.7" stroke-width="3.75" stroke-linecap="round" stroke-linejoin="round"/>
<path d="M50.2738 92.1547C48.0646 92.1547 46.2738 93.9456 46.2738 96.1547C46.2738 98.3637 48.0646 100.155 50.2738 100.155V92.1547ZM74.5371 100.155C76.7461 100.155 78.5371 98.3637 78.5371 96.1547C78.5371 93.9456 76.7461 92.1547 74.5371 92.1547V100.155ZM67.6053 28C69.8144 28 71.6053 26.2091 71.6053 24C71.6053 21.7909 69.8144 20 67.6053 20V28ZM57.2053 20C54.9963 20 53.2054 21.7909 53.2054 24C53.2054 26.2091 54.9963 28 57.2053 28V20ZM50.2738 100.155H74.5371V92.1547H50.2738V100.155ZM67.6053 20H57.2053V28H67.6053V20Z" fill="#0D0D0D" fill-opacity="0.7"/>
</svg>
