<svg width="128" height="128" viewBox="0 0 128 128" fill="none" xmlns="http://www.w3.org/2000/svg">
<path d="M54.3504 98.6667V91.5925H43.3837C38.8827 91.2277 34.6041 89.5424 31.1201 86.7611C27.636 83.9797 25.1126 80.2352 23.8875 76.0288L22.8518 74.1419H20.7194C19.8271 74.0283 19.0061 73.6101 18.4042 72.9632C17.8556 72.2912 17.5554 71.4613 17.5513 70.6048C17.5534 69.9845 17.7213 69.3755 18.0387 68.8363C18.355 68.2939 18.8185 67.8453 19.379 67.5392L21.2068 66.5371V59.8165C21.2817 59.3216 21.4677 58.8491 21.752 58.4315C22.0362 58.0139 22.4116 57.6613 22.8518 57.3995C23.189 57.0773 23.5887 56.8229 24.0278 56.6512C24.467 56.4789 24.9369 56.3931 25.4107 56.3973H61.9659C62.4507 56.3808 62.9339 56.4608 63.3851 56.6331C63.8363 56.8048 64.2459 57.0645 64.5888 57.3968C64.9317 57.7285 65.2005 58.1248 65.3781 58.5616C65.5557 58.9984 65.6384 59.4656 65.6213 59.9344V77.6203H50.3901C50.0445 76.72 49.4553 75.9259 48.6842 75.3211C47.9425 74.6981 47.0347 74.2896 46.0644 74.1419C45.0744 74.0267 44.0702 74.1483 43.14 74.496C42.2231 74.8533 41.4232 75.4443 40.8249 76.2053C40.2421 76.9627 39.8839 77.8597 39.7891 78.7995C39.6562 79.7435 39.8041 80.7045 40.2156 81.5701C40.617 82.4571 41.2724 83.2139 42.1043 83.7515C42.9093 84.3072 43.859 84.6341 44.8459 84.6949H72.6891C74.6229 84.6795 76.4736 83.9291 77.8411 82.6059C79.2085 81.2821 79.984 79.4917 80 77.6203V70.5461C80.0011 69.6112 79.8075 68.6853 79.4309 67.8245C79.0539 66.9632 78.5013 66.1845 77.8069 65.5349C77.1413 64.8752 76.3451 64.352 75.4656 63.9973C74.5861 63.6427 73.6416 63.464 72.6891 63.4715V56.3973C72.3451 49.108 69.1109 42.2275 63.6581 37.1868C58.2059 32.1462 50.9551 29.3333 43.4142 29.3333C35.8732 29.3333 28.6225 32.1462 23.1701 37.1868C17.7177 42.2275 14.4832 49.108 14.1394 56.3973V63.2949C12.0622 65.1413 10.8155 67.7024 10.6667 70.4283C10.6798 72.5584 11.4067 74.6267 12.7381 76.3232C14.0044 77.9691 15.7412 79.2192 17.734 79.9195C19.6499 85.1269 23.1 89.6773 27.6582 93.0091C32.2165 96.3403 37.6833 98.3072 43.3837 98.6667H54.3504Z" fill="#0D0D0D" fill-opacity="0.7"/>
<path d="M85.3333 10.6667H42.6667C39.8377 10.6667 37.1246 11.7904 35.1242 13.7909C33.1238 15.7912 32 18.5044 32 21.3333H80V48H106.667V106.667H32C32 109.495 33.1238 112.209 35.1242 114.209C37.1246 116.21 39.8377 117.333 42.6667 117.333H106.667C109.495 117.333 112.209 116.21 114.209 114.209C116.21 112.209 117.333 109.495 117.333 106.667V42.6667L85.3333 10.6667Z" fill="#0D0D0D" fill-opacity="0.7"/>
</svg>
