<svg width="128" height="128" viewBox="0 0 128 128" fill="none" xmlns="http://www.w3.org/2000/svg">
<path d="M64 124C30.916 124 4 97.084 4 64C4 30.916 30.916 4 64 4C97.084 4 124 30.916 124 64C124 97.084 97.084 124 64 124ZM64 8C33.12 8 8 33.12 8 64C8 94.88 33.12 120 64 120C94.88 120 120 94.88 120 64C120 33.12 94.88 8 64 8Z" fill="#0D0D0D" fill-opacity="0.7"/>
<path d="M94.56 82.852L75.512 76.244L74.22 65.908C73.36 67.136 72.128 68.092 70.524 68.592L71.696 77.972C71.788 78.728 72.304 79.368 73.024 79.612L93.244 86.636C96.844 87.892 100 92.344 100 96.16V96.132C100 97.236 100.896 98.132 102 98.132C103.1 98.132 103.996 97.24 104 96.14C103.988 90.624 99.76 84.672 94.56 82.852Z" fill="#0D0D0D" fill-opacity="0.7"/>
<path d="M26 98.128C24.896 98.128 24 97.232 24 96.128V96.156C24 90.64 28.236 84.672 33.436 82.852L52.484 76.288L52.532 75.168C52.668 74.072 53.688 73.308 54.768 73.432C55.86 73.568 56.64 74.568 56.504 75.668L56.3 78.024C56.208 78.78 55.688 79.416 54.968 79.664L34.752 86.632C31.156 87.892 28 92.344 28 96.156V96.128C28 97.236 27.104 98.128 26 98.128Z" fill="#0D0D0D" fill-opacity="0.7"/>
<path d="M64 72.156C52.884 72.156 47.232 64.78 47.196 46.28C47.188 41.584 47.688 36.828 52.104 32.404C54.916 29.584 58.916 28.156 64 28.156C69.084 28.156 73.084 29.584 75.9 32.408C80.316 36.828 80.816 41.588 80.808 46.284C80.768 64.78 75.116 72.156 64 72.156ZM64 32.156C59.964 32.156 57 33.164 54.932 35.232C52.404 37.764 51.18 40.032 51.192 46.276C51.224 62.348 55.412 68.16 63.996 68.16C72.58 68.16 76.768 62.348 76.8 46.276C76.812 40.032 75.588 37.764 73.06 35.232C71 33.164 68.036 32.156 64 32.156Z" fill="#0D0D0D" fill-opacity="0.7"/>
</svg>
