<svg width="128" height="128" viewBox="0 0 128 128" fill="none" xmlns="http://www.w3.org/2000/svg">
<g clip-path="url(#clip0_7_76)">
<path d="M110.72 21.12C108.16 18.56 103.68 18.56 100.48 21.12L85.12 36.48C78.08 33.92 71.04 32.64 64 32.64C39.68 33.28 17.92 46.08 6.39999 67.2C7.67999 69.76 9.59999 72.32 11.52 74.88C16.64 81.92 23.04 87.68 30.08 92.16L19.2 103.04C16.64 105.6 16 110.08 19.2 113.28C21.76 115.84 26.24 116.48 29.44 113.28L110.72 31.36C113.28 28.16 113.28 23.68 110.72 21.12ZM42.88 78.72L34.56 87.04C26.88 82.56 19.84 76.16 14.72 68.48C22.4 57.6 32.64 49.92 44.8 46.08C36.48 55.04 35.84 69.12 42.88 78.72ZM64.64 57.6C61.44 54.4 62.08 49.28 65.28 46.08C68.48 43.52 72.96 43.52 76.16 46.08L64.64 57.6ZM117.12 60.8C113.92 56.32 110.08 51.84 105.6 48.64L99.2 55.04C104.32 58.88 108.8 63.36 112.64 69.12C101.76 85.76 83.2 96 63.36 96H58.24L51.84 102.4C56.32 101.76 60.16 102.4 64 102.4C85.12 102.4 104.96 92.16 117.12 74.88C119.04 72.32 120.32 69.76 122.24 67.2C120.32 65.28 119.04 62.72 117.12 60.8ZM89.6 64L64 89.6C78.08 89.6 89.6 78.08 89.6 64Z" fill="#0D0D0D" fill-opacity="0.7"/>
</g>
<defs>
<clipPath id="clip0_7_76">
<rect width="128" height="128" fill="white"/>
</clipPath>
</defs>
</svg>
