<svg width="128" height="128" viewBox="0 0 128 128" fill="none" xmlns="http://www.w3.org/2000/svg">
<path d="M53.3333 53.3333C65.1154 53.3333 74.6667 43.7821 74.6667 32C74.6667 20.2179 65.1154 10.6667 53.3333 10.6667C41.5513 10.6667 32 20.2179 32 32C32 43.7821 41.5513 53.3333 53.3333 53.3333Z" stroke="#0D0D0D" stroke-opacity="0.7" stroke-width="3.75"/>
<path d="M112 53.3333H101.333M101.333 53.3333H90.6667M101.333 53.3333V42.6667M101.333 53.3333V64" stroke="#0D0D0D" stroke-opacity="0.7" stroke-width="3.75" stroke-linecap="round"/>
<path d="M95.9867 96C96 95.1243 96 94.2347 96 93.3333C96 80.0784 76.8976 69.3333 53.3333 69.3333C29.7692 69.3333 10.6667 80.0784 10.6667 93.3333C10.6667 106.588 10.6667 117.333 53.3333 117.333C65.232 117.333 73.8123 116.498 80 115.005" stroke="#0D0D0D" stroke-opacity="0.7" stroke-width="3.75" stroke-linecap="round"/>
</svg>
