<svg width="128" height="128" viewBox="0 0 128 128" fill="none" xmlns="http://www.w3.org/2000/svg">
<path d="M64 10.6667C87.5641 10.6667 106.667 29.7692 106.667 53.3333C106.667 66.9231 100.313 79.029 90.4145 86.8426L90.6752 86.6351L90.6704 118.642C90.6704 121.571 87.6255 123.507 84.9731 122.264L64.0028 112.437L43.0437 122.263C40.3912 123.507 37.3456 121.571 37.3456 118.642L37.337 86.645C27.5867 78.8374 21.3333 66.8157 21.3333 53.3333C21.3333 29.7692 40.4358 10.6667 64 10.6667ZM82.6732 91.7076L82.8878 91.6022C77.1941 94.4177 70.7818 96 64 96C57.9978 96 52.2851 94.7606 47.1038 92.5238L45.3429 91.7154L45.3456 112.349L62.3044 104.397C63.38 103.893 64.6241 103.893 65.6997 104.397L82.6704 112.35L82.6732 91.7076ZM64 18.6667C44.8541 18.6667 29.3333 34.1875 29.3333 53.3333C29.3333 72.4792 44.8541 88 64 88C83.1459 88 98.6667 72.4792 98.6667 53.3333C98.6667 34.1875 83.1459 18.6667 64 18.6667ZM65.2202 35.4258L70.087 45.3066L80.9881 46.8819C82.1045 47.0432 82.5507 48.4151 81.7428 49.2023L73.8583 56.8848L75.7196 67.7403C75.9102 68.8519 74.743 69.6992 73.7451 69.1736L64 64.0404L54.2549 69.1736C53.2566 69.6994 52.089 68.8511 52.2806 67.7391L54.1511 56.8848L46.2578 49.2028C45.4492 48.4159 45.8951 47.0433 47.0119 46.8819L57.913 45.3066L62.7798 35.4258C63.2784 34.4136 64.7216 34.4136 65.2202 35.4258Z" fill="#0D0D0D" fill-opacity="0.7"/>
</svg>
