<svg width="128" height="128" viewBox="0 0 128 128" fill="none" xmlns="http://www.w3.org/2000/svg">
<g clip-path="url(#clip0_7_80)">
<path d="M51.8471 104.515C51.8471 101.88 49.7105 99.7432 47.0754 99.7432H11.039C8.40394 99.7432 6.26735 101.88 6.26735 104.515C6.26735 105.346 6.47994 106.126 6.85341 106.806H0V116.7H58.1142V106.806H51.261C51.6342 106.126 51.8471 105.346 51.8471 104.515Z" fill="#0D0D0D" fill-opacity="0.7"/>
<path d="M45.7149 22.9289L76.1633 42.264C78.5312 43.4707 81.473 42.7001 82.926 40.4112L84.3872 38.1112C85.9304 35.6801 85.2113 32.4584 82.7805 30.9147L53.1723 12.1131C50.7418 10.5696 47.5201 11.2888 45.9763 13.7198L44.5152 16.0201C43.0624 18.3088 43.6155 21.2989 45.7149 22.9289Z" fill="#0D0D0D" fill-opacity="0.7"/>
<path d="M127.986 96.7932L127.965 96.3329L127.927 95.8984C127.908 95.6013 127.866 95.3373 127.83 95.0657C127.684 93.9801 127.434 93.0564 127.13 92.2209C126.512 90.5612 125.639 89.3043 124.566 88.3627C124.299 88.1255 124.013 87.9173 123.729 87.7057L122.879 87.0708C122.315 86.6438 121.739 86.2345 121.167 85.8194C120.597 85.402 120.019 84.9958 119.441 84.5904C118.864 84.1821 118.285 83.7782 117.702 83.3816C116.54 82.5788 115.367 81.796 114.191 81.0158L112.42 79.8556L110.64 78.7108C109.45 77.9542 108.257 77.2 107.057 76.4583C105.859 75.7137 104.656 74.9761 103.446 74.2502L99.8127 72.0767L96.1554 69.9404L92.4782 67.8363L88.7827 65.7605L85.0696 63.712L81.3391 61.6919C80.0911 61.025 78.8444 60.3568 77.5881 59.7029C76.3348 59.0456 75.0824 58.385 73.8201 57.7412L72.6771 59.5418L66.9152 56.8261L73.3557 46.6835L42.9075 27.3487L27.0685 52.2918L57.5169 71.6266L63.9574 61.484L68.866 65.544L67.7227 67.3448C68.8426 68.2137 69.9726 69.0651 71.1008 69.9204C72.2264 70.7793 73.3614 71.6235 74.4956 72.4694L77.9106 74.9868L81.344 77.4758L84.7941 79.938L88.2627 82.3709L91.751 84.7728L95.2632 87.1366C96.4353 87.923 97.6139 88.6983 98.7983 89.4663C99.98 90.2374 101.169 90.995 102.361 91.7513L104.153 92.875L105.956 93.9837C107.163 94.7161 108.37 95.4456 109.591 96.1557C110.198 96.5151 110.809 96.8675 111.424 97.2155C112.037 97.5661 112.651 97.9165 113.271 98.2551C113.89 98.5961 114.506 98.9428 115.132 99.2718L116.068 99.7713C116.38 99.9377 116.69 100.108 117.018 100.249C118.327 100.819 119.836 101.075 121.6 100.928C122.486 100.849 123.428 100.681 124.473 100.352C124.735 100.27 124.991 100.195 125.269 100.086L125.678 99.9356L126.104 99.7589C126.672 99.5223 127.279 99.2227 127.938 98.8435C128.001 98.0854 128.014 97.4081 127.986 96.7932Z" fill="#0D0D0D" fill-opacity="0.7"/>
<path d="M17.646 68.0603L47.2537 86.8613C49.6848 88.4046 52.9064 87.6857 54.4499 85.2549L55.9108 82.9543C57.3641 80.6652 56.8106 77.6756 54.7114 76.0456L24.2632 56.7107C21.8953 55.5043 18.9536 56.2746 17.5002 58.5638L16.0396 60.8638C14.4956 63.2949 15.215 66.5168 17.646 68.0603Z" fill="#0D0D0D" fill-opacity="0.7"/>
</g>
<defs>
<clipPath id="clip0_7_80">
<rect width="128" height="128" fill="white"/>
</clipPath>
</defs>
</svg>
