<svg width="128" height="128" viewBox="0 0 128 128" fill="none" xmlns="http://www.w3.org/2000/svg">
<path d="M18.4794 10.0262C18.3322 10.2963 18.3565 13.1379 18.5037 17.1315C18.7482 24.2125 18.7238 24.5555 17.6461 24.5555C17.4016 24.5555 16.5197 24.2125 15.735 23.8208C14.0941 22.9875 13.2851 23.1104 13.2851 24.1395C13.2851 24.4339 13.9469 27.7414 14.7546 31.4893L16.224 38.3245V44.7194V51.1386L17.2045 54.0301C19.4342 60.6694 22.9389 65.495 27.7888 68.631L29.3811 69.6602L29.1853 70.6893C29.0867 71.2525 28.9894 71.7914 28.9651 71.8899C28.9651 72.0128 27.7888 72.0858 26.3437 72.0858C24.8742 72.0858 22.9632 72.2573 22.0314 72.4531C19.8502 72.919 17.1802 74.3398 15.6365 75.8835C13.9213 77.5501 3.80288 90.9517 2.79808 92.8384C2.35648 93.6717 1.84192 95.1168 1.64608 96.023C1.15584 98.2771 1.15584 105.676 1.64608 107.93C2.43072 111.703 5.22368 115.279 8.67712 116.995C9.68192 117.485 10.6368 117.901 10.784 117.901C11.0042 117.901 11.0784 116.7 11.0784 113.417C11.0784 110.967 11.2013 108.541 11.3229 108.051C11.6902 106.729 12.8179 105.896 14.2387 105.896C14.8762 105.896 15.6109 106.067 15.9296 106.287C17.0816 107.096 17.2032 107.708 17.2032 113.245V118.391H38.1504H59.0976V113.491C59.0976 108.125 59.2448 107.366 60.4454 106.435C61.2544 105.797 62.6995 105.724 63.753 106.263C65.1008 106.949 65.2224 107.561 65.2224 113.245C65.2224 119.101 65.0022 118.66 67.5008 117.998C69.6563 117.435 71.5917 116.381 73.2582 114.838L74.7277 113.49H86.3898H98.0518V109.839C98.0518 107.855 98.1747 105.87 98.3206 105.454C98.8595 103.886 100.795 103.42 102.02 104.596L102.706 105.258V109.276V113.318L103.784 113.196C106.552 112.877 109.737 110.451 111.085 107.634C111.795 106.163 111.869 105.747 111.967 103.174L112.065 100.333L110.374 100.186C102.706 99.4752 95.1846 94.4768 91.264 87.5187C86.7558 79.5315 87.1232 69.5104 92.1946 61.8176C93.9648 59.1501 96.5376 56.4787 98.8646 54.9363L100.53 53.8342L100.433 49.792C100.36 46.3373 100.261 45.5539 99.7952 44.329C98.7661 41.7075 96.855 39.7965 94.1107 38.6944C92.8857 38.2042 92.2726 38.1555 86.025 38.0813L79.2627 37.9827L77.719 36.0474C76.0768 33.9891 75.4406 33.6947 74.9747 34.7238C74.4358 35.9245 73.9456 35.753 71.104 33.376C69.1686 31.7837 68.2381 31.1706 67.8451 31.2205L67.3062 31.2934L67.4048 36.7322C67.5021 42.9555 67.5277 42.9312 65.5667 41.975C63.1898 40.823 63.0925 41.1418 64.2931 46.4832C65.248 50.7469 65.2979 51.0886 65.4694 56.896C65.641 62.8493 65.641 62.9235 66.4256 65.1034C68.288 70.2234 70.7622 73.4822 75.0003 76.2509C75.4662 76.5696 75.5392 76.7654 75.392 77.5002L75.2205 78.4064L72.4518 78.505C69.8304 78.6035 69.5603 78.6522 67.7965 79.5341C66.7674 80.0486 65.8854 80.416 65.8611 80.3674C65.2736 79.5098 62.2106 76.0064 61.3773 75.2717C59.0746 73.2621 55.6685 72.1114 51.9693 72.087H50.0826L49.8125 71.0093C49.3965 69.367 49.4451 69.2454 50.6701 68.535C52.1408 67.6774 55.1782 64.7616 56.6733 62.8262C58.2925 60.6694 59.9091 57.4592 61.0611 54.0288L62.0416 51.1373V40.1126V29.088L61.4285 27.3971C60.105 23.6237 57.3376 20.855 53.4899 19.5085C51.9219 18.9453 51.6518 18.921 43.1501 18.921H34.4282L32.2726 16.2266C30.4845 13.9725 29.9942 13.5309 29.4554 13.5309C28.9408 13.5309 28.7206 13.7024 28.4749 14.2656C28.0589 15.2947 27.3728 15.6377 26.6867 15.1718C26.3923 14.976 24.727 13.6525 22.9875 12.2074C19.8029 9.5616 18.9197 9.14431 18.4794 10.0262Z" fill="#0D0D0D" fill-opacity="0.7"/>
<path d="M105.381 64.736C103.078 66.2797 94.2835 73.2134 93.8176 73.8253C93.5731 74.1926 93.303 74.9773 93.2301 75.5648C93.0099 77.5245 93.4259 77.9904 100.09 83.0861C103.421 85.6346 106.484 87.7901 106.876 87.8886C107.881 88.1088 109.106 87.6685 109.964 86.7622C110.625 86.0518 110.674 85.8803 110.797 83.4061L110.92 80.7846L117.535 80.6618C123.439 80.5645 124.223 80.4902 124.812 80.0742C126.918 78.6534 127.384 74.6099 125.693 72.6758C125.277 72.2099 124.713 71.6954 124.42 71.5238C124.077 71.328 121.847 71.1808 117.413 71.1078L110.921 70.985L110.798 68.535C110.725 67.1872 110.529 65.8406 110.382 65.5462C109.375 63.8298 107.244 63.4867 105.381 64.736Z" fill="#0D0D0D" fill-opacity="0.7"/>
</svg>
