<svg width="128" height="128" viewBox="0 0 128 128" fill="none" xmlns="http://www.w3.org/2000/svg">
<path d="M120.246 22.1613H120.012C117.112 22.1613 12.1803 22.1613 7.9875 22.1613C3.58325 22.1613 0 25.7445 0 30.1488V97.851C0 102.255 3.58325 105.839 7.9875 105.839C12.2838 105.839 117.221 105.839 120.012 105.839H120.246C124.521 105.839 128 102.36 128 98.0843V97.851V30.1488V29.9155C128 25.64 124.521 22.1613 120.246 22.1613ZM76.0225 46.1745L78.9085 49.0605L76.0225 51.9468C73.4655 54.5038 73.4652 58.6645 76.0225 61.2223L78.9085 64.1083L76.0225 66.9943C73.4655 69.5513 73.4652 73.712 76.0225 76.2698L78.9085 79.1558L76.0225 82.0425C73.4655 84.5995 73.4652 88.7603 76.0225 91.318L78.9085 94.204C75.748 97.364 75.9023 97.196 75.6255 97.527H8.31175V30.473H75.453C75.818 30.95 75.7568 30.861 78.9088 34.013L76.0225 36.8993C73.4652 39.4565 73.4652 43.6178 76.0225 46.1745ZM119.688 97.5273H87.043C88.519 95.0143 88.1797 91.7213 86.0255 89.5663L83.1395 86.6803L86.0255 83.7943C88.5825 81.2373 88.5827 77.0763 86.0255 74.5188L83.1395 71.6328L86.0255 68.7468C88.5825 66.1898 88.5827 62.0288 86.0255 59.4713L83.1395 56.5853L86.0255 53.6993C87.2642 52.4605 87.9465 50.8135 87.9465 49.0613C87.9465 47.3095 87.2645 45.6623 86.0255 44.4235L83.1395 41.5375L86.0257 38.6513C88.2425 36.434 88.5373 33.0115 86.91 30.4738H119.688V97.5273Z" fill="#0D0D0D" fill-opacity="0.7"/>
<path d="M51.2585 61.012C46.5255 61.012 42.9062 63.0165 42.9062 68.5287V76.4357C42.9062 81.948 46.5255 83.9525 51.2585 83.9525C55.9357 83.9525 59.6107 81.948 59.6107 76.4357V68.5287C59.6105 63.0165 55.9357 61.012 51.2585 61.012ZM51.2585 79.1082C49.5325 79.1082 48.53 78.273 48.53 76.4357V68.5287C48.53 66.6912 49.532 65.8562 51.2585 65.8562C52.9845 65.8562 54.0428 66.6915 54.0428 68.5287V76.4357C54.0425 78.2732 52.9845 79.1082 51.2585 79.1082Z" fill="#0D0D0D" fill-opacity="0.7"/>
<path d="M48.0287 40.8C47.0268 40.8 46.1355 41.2453 45.6902 42.192L26.1465 82.338C25.9795 82.672 25.868 83.0618 25.868 83.3958C25.868 84.7878 27.0927 86.3468 28.986 86.3468C30.044 86.3468 31.102 85.7898 31.4917 84.9548L51.0915 44.8088C51.2585 44.475 51.314 44.085 51.314 43.751C51.3137 41.9693 49.5877 40.8 48.0287 40.8Z" fill="#0D0D0D" fill-opacity="0.7"/>
<path d="M25.7007 43.083C20.9677 43.083 17.3485 45.0875 17.3485 50.5998V58.5065C17.3485 64.0188 20.9677 66.0235 25.7007 66.0235C30.378 66.0235 34.053 64.0188 34.053 58.5065V50.5998C34.053 45.0875 30.378 43.083 25.7007 43.083ZM28.485 58.5065C28.485 60.344 27.4272 61.1793 25.7007 61.1793C23.9747 61.1793 22.9722 60.344 22.9722 58.5065V50.5998C22.9722 48.7623 23.9747 47.9273 25.7007 47.9273C27.4267 47.9273 28.485 48.7625 28.485 50.5998V58.5065Z" fill="#0D0D0D" fill-opacity="0.7"/>
</svg>
