<svg width="128" height="128" viewBox="0 0 128 128" fill="none" xmlns="http://www.w3.org/2000/svg">
<path fill-rule="evenodd" clip-rule="evenodd" d="M26.6667 16C20.7756 16 16 20.7756 16 26.6667V36.4678L7.947 60.6267C5.86945 66.8597 9.85281 73.2763 16 74.4693V106.667C16 112.558 20.7756 117.333 26.6667 117.333H48H53.3333H74.6667H80H101.333C107.225 117.333 112 112.558 112 106.667V74.4693C118.147 73.2763 122.131 66.8597 120.053 60.6267L112 36.4678V26.6667C112 20.7756 107.225 16 101.333 16H26.6667ZM80 106.667H101.333V74.6667H93.3333H64H34.6667H26.6667V106.667H48V90.6667C48 81.8299 55.1632 74.6667 64 74.6667C72.8368 74.6667 80 81.8299 80 90.6667V106.667ZM58.6667 106.667H69.3333V90.6667C69.3333 87.7211 66.9456 85.3333 64 85.3333C61.0544 85.3333 58.6667 87.7211 58.6667 90.6667V106.667ZM18.0663 64L25.1774 42.6667H33.7042L30.1487 64H21.3333H18.0663ZM40.9625 64L44.518 42.6667H58.6667V64H40.9625ZM69.3333 64V42.6667H83.4821L87.0373 64H69.3333ZM97.8512 64L94.296 42.6667H102.822L109.934 64H106.667H97.8512ZM101.333 26.6667V32H88H64H40H26.6667V26.6667H101.333Z" fill="#0D0D0D" fill-opacity="0.7"/>
</svg>
